<?xml version="1.0" standalone="no"?>
<!DOCTYPE svg PUBLIC "-//W3C//DTD SVG 20010904//EN"
 "http://www.w3.org/TR/2001/REC-SVG-20010904/DTD/svg10.dtd">
<svg version="1.0" xmlns="http://www.w3.org/2000/svg"
 width="854.000000pt" height="144.000000pt" viewBox="0 0 854.000000 144.000000"
 preserveAspectRatio="xMidYMid meet">
<metadata>
Created by potrace 1.16, written by Peter Selinger 2001-2019
</metadata>
<g transform="translate(0.000000,144.000000) scale(0.100000,-0.100000)"
fill="#000000" stroke="none">
<path d="M37 1383 c-13 -12 -8 -388 5 -401 16 -16 700 -17 729 -2 18 10 19 23
19 195 0 101 -3 190 -6 199 -5 14 -48 16 -373 16 -202 0 -371 -3 -374 -7z
m691 -200 l3 -143 -321 0 -320 0 0 145 0 145 318 -2 317 -3 3 -142z"/>
<path d="M115 1286 c-11 -8 -16 -19 -12 -30 10 -25 36 -30 56 -12 16 15 19 15
24 1 9 -22 169 -22 188 1 9 11 10 20 2 32 -13 21 -151 29 -184 11 -15 -8 -24
-8 -32 0 -14 14 -19 14 -42 -3z"/>
<path d="M840 1369 c-7 -13 -10 -83 -8 -200 2 -146 6 -182 18 -189 21 -14 706
-13 731 0 18 10 19 23 19 195 0 101 -3 190 -6 199 -5 14 -48 16 -375 16 -361
0 -369 0 -379 -21z m690 -184 l0 -145 -315 0 -315 0 0 145 0 145 315 0 315 0
0 -145z"/>
<path d="M928 1289 c-22 -12 -23 -32 -2 -50 13 -10 19 -10 36 0 15 9 23 10 31
2 6 -6 47 -11 93 -11 91 0 114 12 94 49 -9 18 -20 21 -88 21 -52 0 -84 -5 -99
-15 -19 -13 -22 -13 -27 0 -6 17 -14 18 -38 4z"/>
<path d="M1652 1378 c-15 -15 -17 -360 -2 -389 10 -17 23 -19 156 -19 81 0
154 5 165 10 18 10 19 23 19 195 0 101 -3 190 -6 199 -5 14 -29 16 -163 16
-109 0 -161 -4 -169 -12z m276 -195 l3 -143 -111 0 -110 0 0 105 c0 102 1 105
19 93 16 -10 23 -9 39 5 18 16 20 16 26 2 8 -21 55 -16 70 7 8 14 7 22 -7 35
-15 15 -22 16 -49 5 -22 -8 -35 -8 -44 -1 -9 7 -19 7 -33 -1 -19 -9 -21 -8
-21 15 l0 26 108 -3 107 -3 3 -142z"/>
<path d="M4078 1265 c-2 -3 -54 -18 -116 -34 -125 -33 -138 -39 -124 -53 7 -7
27 -6 61 2 86 20 81 51 81 -469 0 -342 -3 -460 -12 -469 -7 -7 -28 -12 -47
-12 -44 0 -70 -15 -55 -30 7 -7 73 -10 190 -8 151 3 179 5 179 18 0 11 -14 16
-50 18 -27 2 -55 8 -62 14 -10 8 -13 119 -13 519 0 418 -2 509 -13 509 -8 0
-16 -2 -19 -5z"/>
<path d="M2812 1203 c3 -15 14 -18 56 -18 42 0 57 -4 68 -19 12 -16 14 -96 14
-462 0 -503 5 -474 -81 -474 -42 0 -50 -3 -47 -17 3 -15 23 -17 198 -17 167
-1 195 1 195 14 0 10 -12 16 -40 18 -93 6 -85 -16 -85 231 l0 219 24 16 c25
16 25 16 128 -117 57 -72 143 -185 191 -249 47 -64 95 -122 106 -128 32 -17
246 -9 246 9 0 8 -20 20 -46 27 -41 12 -59 28 -155 141 -60 70 -162 192 -227
273 l-117 145 162 158 c202 196 217 207 281 222 34 8 53 17 55 28 3 15 -7 17
-82 17 -97 0 -81 10 -193 -121 -39 -46 -140 -151 -222 -234 l-151 -150 0 227
c0 169 3 229 12 234 7 5 33 8 58 9 34 0 45 4 48 18 3 16 -12 17 -198 17 -186
0 -201 -1 -198 -17z"/>
<path d="M6792 1121 l-62 -56 0 -87 0 -88 -64 0 c-49 0 -65 -4 -70 -16 -11
-29 -6 -32 59 -26 l65 5 0 -251 c0 -283 7 -336 51 -378 26 -25 39 -29 104 -32
63 -4 82 0 130 22 35 16 55 31 52 38 -2 7 -11 11 -18 9 -8 -1 -40 -5 -71 -8
-43 -4 -64 -2 -83 11 l-25 16 0 285 0 285 95 0 c88 0 95 1 95 20 0 23 2 23
-108 20 l-84 -2 3 141 c2 77 1 142 -2 145 -2 2 -32 -21 -67 -53z"/>
<path d="M4620 935 c-107 -30 -201 -109 -241 -202 -45 -106 -43 -253 5 -359
77 -168 298 -235 484 -147 64 30 142 103 142 133 0 28 -7 26 -60 -24 -70 -65
-122 -89 -211 -94 -116 -7 -173 29 -225 142 -22 48 -28 79 -32 158 l-5 98 250
0 c285 0 267 -6 252 89 -13 84 -77 164 -156 197 -52 22 -141 26 -203 9z m166
-40 c31 -20 52 -72 60 -148 l7 -67 -182 0 -181 0 6 28 c9 42 61 146 83 166 49
44 154 55 207 21z"/>
<path d="M5389 937 c-107 -31 -190 -104 -243 -216 -28 -59 -31 -75 -31 -161 0
-86 3 -101 31 -160 135 -281 533 -285 669 -6 22 45 30 77 33 138 11 185 -60
319 -203 384 -65 30 -188 40 -256 21z m180 -47 c95 -48 135 -147 135 -330 -1
-238 -67 -336 -224 -334 -158 1 -230 104 -230 329 0 168 44 286 125 332 52 30
140 31 194 3z"/>
<path d="M6132 931 c-56 -19 -105 -58 -128 -103 -20 -38 -17 -112 5 -157 25
-49 63 -77 187 -139 55 -28 115 -62 132 -77 67 -57 60 -165 -13 -200 -19 -8
-60 -15 -97 -15 -90 0 -145 36 -188 120 -28 56 -53 75 -62 48 -2 -6 6 -47 19
-91 13 -43 23 -85 23 -92 0 -8 27 -17 75 -24 251 -37 415 35 415 182 0 109
-48 154 -271 255 -118 54 -145 95 -125 189 18 81 124 109 214 57 36 -21 50
-38 74 -91 21 -48 33 -63 46 -61 14 3 17 14 15 58 -4 95 -11 120 -36 120 -12
0 -51 9 -85 20 -78 25 -131 25 -200 1z"/>
<path d="M7522 924 c-50 -25 -116 -90 -150 -146 -9 -16 -20 -28 -24 -28 -4 0
-8 41 -8 90 0 71 -3 92 -15 96 -8 4 -61 -3 -117 -13 -74 -14 -103 -23 -103
-34 0 -10 10 -13 35 -11 20 2 44 -3 55 -12 19 -14 20 -28 23 -311 2 -215 0
-301 -9 -311 -6 -8 -30 -14 -54 -14 -40 0 -73 -19 -58 -33 3 -4 89 -7 190 -7
176 0 183 1 183 20 0 17 -7 20 -48 20 -26 0 -53 5 -60 12 -9 9 -12 72 -12 220
0 205 1 210 26 260 14 28 48 73 75 100 44 44 53 49 86 46 33 -3 41 -9 61 -45
25 -45 50 -55 72 -28 14 17 8 101 -10 135 -15 29 -74 26 -138 -6z"/>
<path d="M8039 937 c-107 -31 -190 -104 -243 -216 -28 -59 -31 -75 -31 -161 0
-86 3 -101 31 -160 135 -281 533 -285 669 -6 22 45 30 77 33 138 11 185 -60
319 -203 384 -65 30 -188 40 -256 21z m180 -47 c95 -48 135 -147 135 -330 -1
-238 -67 -336 -224 -334 -158 1 -230 104 -230 329 0 168 44 286 125 332 52 30
140 31 194 3z"/>
<path d="M42 912 c-9 -7 -12 -55 -10 -208 l3 -199 165 -3 c146 -2 166 -1 177
15 16 21 18 355 3 384 -10 18 -23 19 -168 19 -86 0 -163 -4 -170 -8z m278
-207 l0 -146 -112 3 -113 3 -3 143 -3 142 116 0 115 0 0 -145z"/>
<path d="M442 908 c-17 -17 -17 -379 0 -396 14 -14 714 -17 736 -4 9 7 12 55
10 208 l-3 199 -365 3 c-276 2 -369 -1 -378 -10z m688 -203 l0 -145 -317 2
-318 3 -3 143 -3 142 321 0 320 0 0 -145z"/>
<path d="M515 810 c-3 -6 -3 -19 0 -30 7 -22 44 -27 62 -9 8 8 13 8 17 0 8
-13 165 -15 184 -2 8 5 12 17 10 27 -3 17 -14 19 -92 22 -53 2 -93 -2 -101 -8
-9 -8 -15 -8 -20 0 -8 13 -52 13 -60 0z"/>
<path d="M1252 908 c-17 -17 -17 -379 0 -396 14 -14 714 -17 736 -4 9 7 12 55
10 208 l-3 199 -365 3 c-276 2 -369 -1 -378 -10z m688 -203 l0 -145 -317 2
-318 3 -3 143 -3 142 321 0 320 0 0 -145z"/>
<path d="M1334 805 c-14 -36 26 -61 53 -34 8 8 13 8 17 0 11 -18 181 -14 196
4 10 12 10 18 0 30 -16 19 -179 22 -198 3 -9 -9 -12 -9 -12 0 0 17 -50 15 -56
-3z"/>
<path d="M42 442 c-9 -7 -12 -55 -10 -208 l3 -199 355 -3 c195 -1 365 0 378 3
22 5 22 7 22 198 0 137 -3 196 -12 205 -14 14 -714 17 -736 4z m686 -204 l-3
-143 -315 0 -315 0 -3 143 -3 142 321 0 321 0 -3 -142z"/>
<path d="M115 336 c-11 -8 -16 -19 -12 -30 10 -25 36 -30 56 -12 16 15 19 15
24 1 9 -22 169 -22 188 1 9 11 10 20 2 32 -13 21 -151 29 -184 11 -15 -8 -24
-8 -32 0 -14 14 -19 14 -42 -3z"/>
<path d="M846 434 c-13 -13 -16 -45 -16 -190 0 -102 4 -183 10 -195 10 -18 25
-19 373 -19 269 0 366 3 375 12 17 17 17 379 0 396 -9 9 -105 12 -369 12 -312
0 -360 -2 -373 -16z m684 -199 l0 -145 -315 0 -315 0 0 145 0 145 315 0 315 0
0 -145z"/>
<path d="M933 343 c-18 -7 -16 -50 2 -57 19 -7 45 3 45 17 0 5 8 3 18 -6 14
-13 38 -17 93 -17 85 0 102 8 97 41 -3 23 -7 24 -85 27 -46 1 -92 -2 -102 -8
-13 -7 -22 -7 -26 0 -7 11 -22 12 -42 3z"/>
<path d="M1658 439 c-16 -9 -18 -29 -18 -190 0 -105 4 -188 10 -200 10 -17 23
-19 163 -19 106 0 157 4 165 12 17 17 17 379 0 396 -15 15 -295 16 -320 1z
m270 -201 l-3 -143 -107 -3 -108 -3 0 106 c0 102 1 105 19 93 16 -10 23 -9 39
5 18 16 20 16 26 2 8 -21 55 -16 70 7 8 14 7 22 -7 35 -15 15 -22 16 -49 5
-22 -8 -35 -8 -44 -1 -9 7 -19 7 -33 -1 -19 -9 -21 -8 -21 15 l0 25 110 0 111
0 -3 -142z"/>
</g>
</svg>
