<!DOCTYPE svg PUBLIC "-//W3C//DTD SVG 1.1//EN" "http://www.w3.org/Graphics/SVG/1.1/DTD/svg11.dtd">
<!-- Uploaded to: SVG Repo, www.svgrepo.com, Transformed by: SVG Repo Mixer Tools -->
<svg fill="#ea0b0b" width="100px" height="100px" viewBox="-192 -192 2304.00 2304.00" xmlns="http://www.w3.org/2000/svg" stroke="#ea0b0b" stroke-width="0.019200000000000002">
<g id="SVGRepo_bgCarrier" stroke-width="0"/>
<g id="SVGRepo_tracerCarrier" stroke-linecap="round" stroke-linejoin="round" stroke="#000000" stroke-width="69.11999999999999"> <path d="M168.941-.011v1920H56v-1920h112.941Zm112.941 68.453c308.669-81.656 496.15 26.429 677.196 133.045 203.407 119.944 413.59 244.066 833.844 139.03 20.217-4.969 41.676 1.469 55.793 17.168 13.892 15.699 18.07 37.835 10.843 57.487-203.407 542.343-504.17 552.734-794.993 562.786-223.285 7.906-454.25 15.811-686.344 247.906l-96.339 96.338Z" fill-rule="evenodd"/> </g>
<g id="SVGRepo_iconCarrier"> <path d="M168.941-.011v1920H56v-1920h112.941Zm112.941 68.453c308.669-81.656 496.15 26.429 677.196 133.045 203.407 119.944 413.59 244.066 833.844 139.03 20.217-4.969 41.676 1.469 55.793 17.168 13.892 15.699 18.07 37.835 10.843 57.487-203.407 542.343-504.17 552.734-794.993 562.786-223.285 7.906-454.25 15.811-686.344 247.906l-96.339 96.338Z" fill-rule="evenodd"/> </g>
</svg>