<svg xmlns="http://www.w3.org/2000/svg" width="854.000000pt" height="144.000000pt" version="1.0" viewBox="0 0 854.000000 144.000000"><g fill="#e6d4c1"><path d="M3.7 5.7c-1.3 1.2-.8 38.8.5 40.1 1.6 1.6 70 1.7 72.9.2 1.8-1 1.9-2.3 1.9-19.5 0-10.1-.3-19-.6-19.9C77.9 5.2 73.6 5 41.1 5 20.9 5 4 5.3 3.7 5.7m69.1 20 .3 14.3H9V11l31.8.2 31.7.3z"/><path d="M11.5 15.4c-1.1.8-1.6 1.9-1.2 3 1 2.5 3.6 3 5.6 1.2 1.6-1.5 1.9-1.5 2.4-.1.9 2.2 16.9 2.2 18.8-.1.9-1.1 1-2 .2-3.2-1.3-2.1-15.1-2.9-18.4-1.1-1.5.8-2.4.8-3.2 0-1.4-1.4-1.9-1.4-4.2.3M84 7.1c-.7 1.3-1 8.3-.8 20 .2 14.6.6 18.2 1.8 18.9 2.1 1.4 70.6 1.3 73.1 0 1.8-1 1.9-2.3 1.9-19.5 0-10.1-.3-19-.6-19.9-.5-1.4-4.8-1.6-37.5-1.6C85.8 5 85 5 84 7.1m69 18.4V40H90V11h63z"/><path d="M92.8 15.1c-2.2 1.2-2.3 3.2-.2 5 1.3 1 1.9 1 3.6 0 1.5-.9 2.3-1 3.1-.2.6.6 4.7 1.1 9.3 1.1 9.1 0 11.4-1.2 9.4-4.9-.9-1.8-2-2.1-8.8-2.1-5.2 0-8.4.5-9.9 1.5-1.9 1.3-2.2 1.3-2.7 0-.6-1.7-1.4-1.8-3.8-.4m72.4-8.9c-1.5 1.5-1.7 36-.2 38.9 1 1.7 2.3 1.9 15.6 1.9 8.1 0 15.4-.5 16.5-1 1.8-1 1.9-2.3 1.9-19.5 0-10.1-.3-19-.6-19.9-.5-1.4-2.9-1.6-16.3-1.6-10.9 0-16.1.4-16.9 1.2m27.6 19.5.3 14.3H171V29.5c0-10.2.1-10.5 1.9-9.3 1.6 1 2.3.9 3.9-.5 1.8-1.6 2-1.6 2.6-.2.8 2.1 5.5 1.6 7-.7.8-1.4.7-2.2-.7-3.5-1.5-1.5-2.2-1.6-4.9-.5-2.2.8-3.5.8-4.4.1s-1.9-.7-3.3.1c-1.9.9-2.1.8-2.1-1.5v-2.6l10.8.3 10.7.3zm215-8.2c-.2.3-5.4 1.8-11.6 3.4-12.5 3.3-13.8 3.9-12.4 5.3.7.7 2.7.6 6.1-.2 8.6-2 8.1-5.1 8.1 46.9 0 34.2-.3 46-1.2 46.9-.7.7-2.8 1.2-4.7 1.2-4.4 0-7 1.5-5.5 3 .7.7 7.3 1 19 .8 15.1-.3 17.9-.5 17.9-1.8 0-1.1-1.4-1.6-5-1.8-2.7-.2-5.5-.8-6.2-1.4-1-.8-1.3-11.9-1.3-51.9 0-41.8-.2-50.9-1.3-50.9-.8 0-1.6.2-1.9.5m-126.6 6.2c.3 1.5 1.4 1.8 5.6 1.8s5.7.4 6.8 1.9c1.2 1.6 1.4 9.6 1.4 46.2 0 50.3.5 47.4-8.1 47.4-4.2 0-5 .3-4.7 1.7.3 1.5 2.3 1.7 19.8 1.7 16.7.1 19.5-.1 19.5-1.4 0-1-1.2-1.6-4-1.8-9.3-.6-8.5 1.6-8.5-23.1V76.2l2.4-1.6c2.5-1.6 2.5-1.6 12.8 11.7 5.7 7.2 14.3 18.5 19.1 24.9 4.7 6.4 9.5 12.2 10.6 12.8 3.2 1.7 24.6.9 24.6-.9 0-.8-2-2-4.6-2.7-4.1-1.2-5.9-2.8-15.5-14.1-6-7-16.2-19.2-22.7-27.3L324 64.5l16.2-15.8c20.2-19.6 21.7-20.7 28.1-22.2 3.4-.8 5.3-1.7 5.5-2.8.3-1.5-.7-1.7-8.2-1.7-9.7 0-8.1-1-19.3 12.1-3.9 4.6-14 15.1-22.2 23.4l-15.1 15V49.8c0-16.9.3-22.9 1.2-23.4.7-.5 3.3-.8 5.8-.9 3.4 0 4.5-.4 4.8-1.8.3-1.6-1.2-1.7-19.8-1.7s-20.1.1-19.8 1.7m398 8.2-6.2 5.6V55h-6.4c-4.9 0-6.5.4-7 1.6-1.1 2.9-.6 3.2 5.9 2.6l6.5-.5v25.1c0 28.3.7 33.6 5.1 37.8 2.6 2.5 3.9 2.9 10.4 3.2 6.3.4 8.2 0 13-2.2 3.5-1.6 5.5-3.1 5.2-3.8-.2-.7-1.1-1.1-1.8-.9-.8.1-4 .5-7.1.8-4.3.4-6.4.2-8.3-1.1L686 116V59h9.5c8.8 0 9.5-.1 9.5-2 0-2.3.2-2.3-10.8-2l-8.4.2.3-14.1c.2-7.7.1-14.2-.2-14.5-.2-.2-3.2 2.1-6.7 5.3M462 50.5c-10.7 3-20.1 10.9-24.1 20.2-4.5 10.6-4.3 25.3.5 35.9 7.7 16.8 29.8 23.5 48.4 14.7 6.4-3 14.2-10.3 14.2-13.3 0-2.8-.7-2.6-6 2.4-7 6.5-12.2 8.9-21.1 9.4-11.6.7-17.3-2.9-22.5-14.2-2.2-4.8-2.8-7.9-3.2-15.8l-.5-9.8h25c28.5 0 26.7.6 25.2-8.9-1.3-8.4-7.7-16.4-15.6-19.7-5.2-2.2-14.1-2.6-20.3-.9m16.6 4c3.1 2 5.2 7.2 6 14.8l.7 6.7H449l.6-2.8c.9-4.2 6.1-14.6 8.3-16.6 4.9-4.4 15.4-5.5 20.7-2.1m60.3-4.2c-10.7 3.1-19 10.4-24.3 21.6-2.8 5.9-3.1 7.5-3.1 16.1s.3 10.1 3.1 16c13.5 28.1 53.3 28.5 66.9.6 2.2-4.5 3-7.7 3.3-13.8 1.1-18.5-6-31.9-20.3-38.4-6.5-3-18.8-4-25.6-2.1m18 4.7c9.5 4.8 13.5 14.7 13.5 33-.1 23.8-6.7 33.6-22.4 33.4-15.8-.1-23-10.4-23-32.9 0-16.8 4.4-28.6 12.5-33.2 5.2-3 14-3.1 19.4-.3m56.3-4.1c-5.6 1.9-10.5 5.8-12.8 10.3-2 3.8-1.7 11.2.5 15.7 2.5 4.9 6.3 7.7 18.7 13.9 5.5 2.8 11.5 6.2 13.2 7.7 6.7 5.7 6 16.5-1.3 20-1.9.8-6 1.5-9.7 1.5-9 0-14.5-3.6-18.8-12-2.8-5.6-5.3-7.5-6.2-4.8-.2.6.6 4.7 1.9 9.1 1.3 4.3 2.3 8.5 2.3 9.2 0 .8 2.7 1.7 7.5 2.4 25.1 3.7 41.5-3.5 41.5-18.2 0-10.9-4.8-15.4-27.1-25.5-11.8-5.4-14.5-9.5-12.5-18.9 1.8-8.1 12.4-10.9 21.4-5.7 3.6 2.1 5 3.8 7.4 9.1 2.1 4.8 3.3 6.3 4.6 6.1 1.4-.3 1.7-1.4 1.5-5.8-.4-9.5-1.1-12-3.6-12-1.2 0-5.1-.9-8.5-2-7.8-2.5-13.1-2.5-20-.1m139 .7c-5 2.5-11.6 9-15 14.6-.9 1.6-2 2.8-2.4 2.8s-.8-4.1-.8-9c0-7.1-.3-9.2-1.5-9.6-.8-.4-6.1.3-11.7 1.3-7.4 1.4-10.3 2.3-10.3 3.4 0 1 1 1.3 3.5 1.1 2-.2 4.4.3 5.5 1.2 1.9 1.4 2 2.8 2.3 31.1.2 21.5 0 30.1-.9 31.1-.6.8-3 1.4-5.4 1.4-4 0-7.3 1.9-5.8 3.3.3.4 8.9.7 19 .7 17.6 0 18.3-.1 18.3-2 0-1.7-.7-2-4.8-2-2.6 0-5.3-.5-6-1.2-.9-.9-1.2-7.2-1.2-22 0-20.5.1-21 2.6-26 1.4-2.8 4.8-7.3 7.5-10 4.4-4.4 5.3-4.9 8.6-4.6s4.1.9 6.1 4.5c2.5 4.5 5 5.5 7.2 2.8 1.4-1.7.8-10.1-1-13.5-1.5-2.9-7.4-2.6-13.8.6m51.7-1.3c-10.7 3.1-19 10.4-24.3 21.6-2.8 5.9-3.1 7.5-3.1 16.1s.3 10.1 3.1 16c13.5 28.1 53.3 28.5 66.9.6 2.2-4.5 3-7.7 3.3-13.8 1.1-18.5-6-31.9-20.3-38.4-6.5-3-18.8-4-25.6-2.1m18 4.7c9.5 4.8 13.5 14.7 13.5 33-.1 23.8-6.7 33.6-22.4 33.4-15.8-.1-23-10.4-23-32.9 0-16.8 4.4-28.6 12.5-33.2 5.2-3 14-3.1 19.4-.3M4.2 52.8c-.9.7-1.2 5.5-1 20.8l.3 19.9 16.5.3c14.6.2 16.6.1 17.7-1.5 1.6-2.1 1.8-35.5.3-38.4-1-1.8-2.3-1.9-16.8-1.9-8.6 0-16.3.4-17 .8M32 73.5v14.6l-11.2-.3-11.3-.3-.3-14.3L8.9 59H32zm12.2-20.3c-1.7 1.7-1.7 37.9 0 39.6 1.4 1.4 71.4 1.7 73.6.4.9-.7 1.2-5.5 1-20.8l-.3-19.9-36.5-.3c-27.6-.2-36.9.1-37.8 1M113 73.5V88l-31.7-.2-31.8-.3-.3-14.3-.3-14.2H113z"/><path d="M51.5 63c-.3.6-.3 1.9 0 3 .7 2.2 4.4 2.7 6.2.9.8-.8 1.3-.8 1.7 0 .8 1.3 16.5 1.5 18.4.2.8-.5 1.2-1.7 1-2.7-.3-1.7-1.4-1.9-9.2-2.2-5.3-.2-9.3.2-10.1.8-.9.8-1.5.8-2 0-.8-1.3-5.2-1.3-6 0m73.7-9.8c-1.7 1.7-1.7 37.9 0 39.6 1.4 1.4 71.4 1.7 73.6.4.9-.7 1.2-5.5 1-20.8l-.3-19.9-36.5-.3c-27.6-.2-36.9.1-37.8 1M194 73.5V88l-31.7-.2-31.8-.3-.3-14.3-.3-14.2H194z"/><path d="M133.4 63.5c-1.4 3.6 2.6 6.1 5.3 3.4.8-.8 1.3-.8 1.7 0 1.1 1.8 18.1 1.4 19.6-.4 1-1.2 1-1.8 0-3-1.6-1.9-17.9-2.2-19.8-.3-.9.9-1.2.9-1.2 0 0-1.7-5-1.5-5.6.3M4.2 99.8c-.9.7-1.2 5.5-1 20.8l.3 19.9 35.5.3c19.5.1 36.5 0 37.8-.3 2.2-.5 2.2-.7 2.2-19.8 0-13.7-.3-19.6-1.2-20.5-1.4-1.4-71.4-1.7-73.6-.4m68.6 20.4-.3 14.3h-63l-.3-14.3-.3-14.2h64.2z"/><path d="M11.5 110.4c-1.1.8-1.6 1.9-1.2 3 1 2.5 3.6 3 5.6 1.2 1.6-1.5 1.9-1.5 2.4-.1.9 2.2 16.9 2.2 18.8-.1.9-1.1 1-2 .2-3.2-1.3-2.1-15.1-2.9-18.4-1.1-1.5.8-2.4.8-3.2 0-1.4-1.4-1.9-1.4-4.2.3m73.1-9.8c-1.3 1.3-1.6 4.5-1.6 19 0 10.2.4 18.3 1 19.5 1 1.8 2.5 1.9 37.3 1.9 26.9 0 36.6-.3 37.5-1.2 1.7-1.7 1.7-37.9 0-39.6-.9-.9-10.5-1.2-36.9-1.2-31.2 0-36 .2-37.3 1.6m68.4 19.9V135H90v-29h63z"/><path d="M93.3 109.7c-1.8.7-1.6 5 .2 5.7 1.9.7 4.5-.3 4.5-1.7 0-.5.8-.3 1.8.6 1.4 1.3 3.8 1.7 9.3 1.7 8.5 0 10.2-.8 9.7-4.1-.3-2.3-.7-2.4-8.5-2.7-4.6-.1-9.2.2-10.2.8-1.3.7-2.2.7-2.6 0-.7-1.1-2.2-1.2-4.2-.3m72.5-9.6c-1.6.9-1.8 2.9-1.8 19 0 10.5.4 18.8 1 20 1 1.7 2.3 1.9 16.3 1.9 10.6 0 15.7-.4 16.5-1.2 1.7-1.7 1.7-37.9 0-39.6-1.5-1.5-29.5-1.6-32-.1m27 20.1-.3 14.3-10.7.3-10.8.3v-10.6c0-10.2.1-10.5 1.9-9.3 1.6 1 2.3.9 3.9-.5 1.8-1.6 2-1.6 2.6-.2.8 2.1 5.5 1.6 7-.7.8-1.4.7-2.2-.7-3.5-1.5-1.5-2.2-1.6-4.9-.5-2.2.8-3.5.8-4.4.1s-1.9-.7-3.3.1c-1.9.9-2.1.8-2.1-1.5V106h22.1z"/></g></svg>