<svg xmlns="http://www.w3.org/2000/svg" width="100" height="60" fill="none" viewBox="0 0 100 60"><path fill="#B0907A" d="M69 25c0 10.493-8.507 19-19 19s-19-8.507-19-19S39.507 6 50 6s19 8.507 19 19Z"/><path fill="#403F3D" d="M95.678 22.291a.528.528 0 0 1 .504.245c.144.18.23.438.26.773.05.573-.042 1.08-.277 1.517a4.649 4.649 0 0 1-1.629 1.757c-.684.446-1.528.712-2.532.8-1.53.134-2.757-.217-3.681-1.051-.926-.85-1.457-2.057-1.594-3.62a6.87 6.87 0 0 1 .426-3.12c.378-.997.95-1.81 1.714-2.439.78-.63 1.688-.99 2.724-1.081.924-.081 1.69.133 2.296.642.606.493.95 1.21 1.032 2.15.096 1.1-.22 2.083-.947 2.95-.712.85-1.997 1.588-3.853 2.216.447.7 1.124 1.01 2.033.93.653-.056 1.174-.255 1.562-.594.404-.34.853-.893 1.348-1.66.17-.255.375-.394.614-.415Zm-4.287-3.84c-.59.05-1.062.438-1.416 1.16-.338.72-.465 1.566-.38 2.538l.004.048c.92-.306 1.633-.705 2.136-1.199.503-.494.728-1.035.677-1.625-.027-.303-.135-.534-.326-.694-.176-.178-.408-.254-.695-.229Z"/><path fill="#403F3D" d="M83.298 28.145c-1.562.136-2.82-.195-3.773-.995-.94-.818-1.472-1.951-1.599-3.402-.113-1.291.043-2.445.468-3.462.425-1.017 1.02-1.824 1.788-2.42.767-.598 1.596-.936 2.489-1.014.877-.076 1.577.127 2.101.611.539.467.844 1.107.915 1.92.059.67-.043 1.249-.306 1.737-.246.488-.609.752-1.087.794-.302.027-.556-.024-.76-.15-.188-.128-.293-.32-.315-.575a1.8 1.8 0 0 1 .014-.387l.045-.317a2.1 2.1 0 0 0 .06-.68c-.017-.207-.087-.361-.208-.463-.106-.103-.254-.147-.445-.13-.367.032-.695.23-.984.592-.291.347-.508.807-.65 1.382a5.665 5.665 0 0 0-.126 1.866c.162 1.849 1.047 2.703 2.657 2.562.654-.057 1.336-.334 2.048-.83.726-.513 1.417-1.24 2.073-2.18.172-.24.378-.37.617-.392a.528.528 0 0 1 .503.245c.144.18.231.438.26.773.053.605-.055 1.113-.324 1.522a7.88 7.88 0 0 1-2.514 2.388c-.993.585-1.975.92-2.947 1.005Z"/><path fill="#403F3D" d="M69.548 29.348c-.606.053-1.064-.229-1.375-.844-.295-.616-.503-1.626-.626-3.029-.181-2.072-.059-4.066.368-5.983.103-.474.305-.83.605-1.064.316-.253.768-.405 1.358-.456.319-.028.545-.008.68.06.134.07.211.215.23.438.023.255-.046.84-.207 1.753-.104.651-.183 1.22-.237 1.707a17.215 17.215 0 0 0-.084 1.79c.406-1.417.898-2.584 1.477-3.502.578-.918 1.162-1.587 1.751-2.008.606-.423 1.171-.657 1.698-.703 1.035-.09 1.599.382 1.69 1.418.018.207-.01.716-.084 1.525-.072.65-.1 1.053-.087 1.213.05.557.273.819.671.784.447-.039.99-.44 1.63-1.203.189-.225.395-.347.618-.367a.528.528 0 0 1 .503.245c.143.164.228.398.254.7.052.59-.067 1.067-.356 1.43a6.66 6.66 0 0 1-1.474 1.333 3.926 3.926 0 0 1-1.847.643c-.845.074-1.509-.085-1.993-.476-.468-.393-.734-.955-.798-1.689a3.644 3.644 0 0 1 .009-.723 8.028 8.028 0 0 0-.009-.65c-.022-.255-.12-.375-.296-.36-.24.021-.534.32-.886.897-.336.56-.657 1.294-.963 2.204-.306.91-.536 1.862-.69 2.855-.11.765-.272 1.293-.488 1.585-.2.274-.548.433-1.042.477Z"/><path fill="#403F3D" d="M59.245 30.249c-.717.063-1.335-.213-1.855-.826-.505-.63-.8-1.44-.887-2.428a20.73 20.73 0 0 1-.047-3.296c.071-1.018.241-2.101.51-3.249.118-.492.311-.854.58-1.087.269-.232.714-.375 1.336-.43.35-.03.594.005.732.105.153.1.24.26.259.483.01.128-.04.566-.15 1.314a25.07 25.07 0 0 0-.243 1.636c-.172 1.701-.234 2.83-.185 3.389.03.335.09.57.182.707.091.12.224.173.4.157.238-.02.512-.285.821-.794.325-.51.644-1.27.958-2.276.329-1.009.623-2.24.881-3.691.086-.49.247-.849.484-1.079.253-.23.642-.369 1.168-.415.367-.032.626-.007.778.077.15.067.236.22.257.459.035.398-.069 1.508-.311 3.328-.268 2.079-.381 3.358-.34 3.836.027.303.112.536.255.7a.614.614 0 0 0 .523.195c.319-.027.677-.251 1.073-.672.412-.437.946-1.126 1.602-2.067.172-.24.377-.37.617-.391a.528.528 0 0 1 .503.245c.144.18.23.437.26.772.056.638-.052 1.145-.325 1.522-.61.905-1.291 1.663-2.041 2.275-.734.61-1.603.959-2.607 1.047-.765.067-1.356-.179-1.775-.736-.402-.56-.65-1.373-.743-2.44-.176 1.107-.51 1.98-1 2.616-.492.622-1.048.96-1.67 1.014Z"/><path fill="#403F3D" d="M57.56 22.88c.208-.019.376.071.506.268.13.198.208.456.236.775.067.765-.124 1.24-.574 1.423-.927.419-1.962.702-3.105.85-.186 1.366-.69 2.494-1.511 3.385-.823.875-1.8 1.362-2.932 1.46-.956.085-1.798-.075-2.523-.477a4.453 4.453 0 0 1-1.692-1.707 5.918 5.918 0 0 1-.743-2.44c-.106-1.212.03-2.308.41-3.289.38-.997.952-1.794 1.719-2.39a4.784 4.784 0 0 1 2.63-1.05c1.212-.106 2.221.231 3.028 1.012.822.763 1.35 1.753 1.585 2.97.745-.114 1.624-.352 2.636-.713.125-.043.235-.07.33-.077Zm-7.41 5.61c.51-.044.93-.29 1.26-.736.346-.448.549-1.068.608-1.86a3.407 3.407 0 0 1-1.263-1.214 4.01 4.01 0 0 1-.533-1.688 4.161 4.161 0 0 1 .005-.772l-.12.01c-.637.056-1.144.414-1.52 1.073-.361.642-.493 1.521-.395 2.637.076.876.302 1.531.677 1.964.392.432.818.627 1.28.587Z"/><path fill="#403F3D" d="M40.31 32.435c-.83.073-1.484-.063-1.964-.406-.463-.345-.716-.756-.758-1.235a1.476 1.476 0 0 1 .36-1.115c.276-.33.71-.52 1.3-.572.206-.018.448-.015.723.01l.652.015a2.96 2.96 0 0 0-.39-1.147 5.09 5.09 0 0 0-.713-.997c-.286-.329-.552-.61-.797-.846-.412.983-.838 1.808-1.278 2.473a16.483 16.483 0 0 1-1.423 1.907c-.262.312-.552.482-.87.51a.804.804 0 0 1-.645-.209 1.051 1.051 0 0 1-.3-.672 1.368 1.368 0 0 1 .257-.914l.278-.41c.782-1.16 1.365-2.111 1.75-2.851.23-.486.495-1.128.795-1.925.298-.813.587-1.65.865-2.509.241-.728.84-1.134 1.796-1.217.447-.04.761-.027.943.038.183.064.282.184.297.36.008.095-.01.25-.056.462a3.47 3.47 0 0 1-.209.645c-.236.599-.337 1.097-.303 1.496.022.239.124.495.309.768.2.271.494.607.883 1.007.568.624 1.001 1.165 1.298 1.62.311.44.492.937.54 1.495.014.16.018.384.011.674.755-.371 1.6-1.256 2.538-2.655.172-.24.378-.37.617-.392a.528.528 0 0 1 .503.245c.144.18.23.438.26.773.053.605-.055 1.113-.325 1.522-.71 1.058-1.416 1.802-2.117 2.233-.687.413-1.562.683-2.627.808-.59.598-1.324.935-2.2 1.011Z"/><path fill="#403F3D" d="M36.617 26.736a.528.528 0 0 1 .503.245c.145.18.231.437.26.772.056.637-.052 1.145-.324 1.522-.527.769-1.306 1.504-2.337 2.204a6.89 6.89 0 0 1-3.363 1.21c-1.674.146-3.012-.194-4.016-1.022-1.004-.828-1.575-2.03-1.713-3.608-.097-1.1.045-2.14.425-3.121.379-.997.95-1.81 1.714-2.44.78-.63 1.688-.99 2.724-1.08.925-.081 1.69.133 2.297.642.605.493.95 1.21 1.031 2.15.096 1.1-.219 2.083-.946 2.95-.713.849-1.99 1.587-3.83 2.214.463.698 1.252.999 2.368.901.717-.063 1.508-.381 2.374-.955A8.236 8.236 0 0 0 36 27.127c.172-.24.377-.37.616-.391Zm-6.328-2.94c-.59.052-1.062.438-1.417 1.16-.338.72-.465 1.566-.38 2.539l.005.047c.92-.305 1.632-.705 2.135-1.198.503-.494.729-1.036.677-1.625-.026-.303-.135-.535-.326-.695-.176-.177-.407-.253-.694-.228Z"/><path fill="#403F3D" d="M27.69 27.517a.528.528 0 0 1 .504.245c.144.18.23.437.26.772.055.622-.054 1.13-.324 1.522-.685.992-1.395 1.776-2.131 2.355-.738.562-1.64.89-2.709.984-1.036.09-1.945-.111-2.727-.605-.766-.495-1.535-1.392-2.307-2.69-.62-1.037-1.105-1.798-1.453-2.281-.348-.5-.684-.848-1.006-1.044-.307-.198-.677-.303-1.112-.313-.034.34-.126 1.409-.274 3.204a105.84 105.84 0 0 1-.111 1.48c-.074.986-.328 1.763-.76 2.33-.433.553-1.136.871-2.108.956-1.068.094-2.044-.134-2.927-.683-.869-.567-1.575-1.388-2.12-2.465-.544-1.093-.88-2.356-1.005-3.79-.235-2.679.025-5.03.78-7.056.77-2.026 1.947-3.623 3.532-4.79 1.599-1.184 3.498-1.872 5.697-2.064 1.53-.134 2.834-.015 3.91.356 1.077.372 1.898.943 2.463 1.712.581.769.916 1.663 1.006 2.683.078.892-.06 1.788-.416 2.686-.34.881-.904 1.686-1.692 2.413-.788.727-1.773 1.303-2.957 1.728.784.14 1.403.424 1.858.85.454.426.928 1.067 1.42 1.923.53.917 1.03 1.58 1.5 1.989.485.407 1.014.586 1.588.536.51-.045.982-.255 1.415-.63.431-.391.962-1.032 1.59-1.922.172-.24.377-.37.617-.391Zm-16.306-.79c-.542.047-.928-.047-1.157-.284a1.404 1.404 0 0 1-.363-.836c-.033-.382.06-.696.28-.94.235-.245.512-.382.83-.41l.599-.052c.118-1.584.24-2.952.363-4.103.117-1.055.741-1.631 1.873-1.73.908-.08 1.398.287 1.47 1.1.015.175.018.311.01.409l-.37 4.031a5.697 5.697 0 0 0 2.29-.826 4.28 4.28 0 0 0 1.563-1.68c.373-.69.524-1.45.451-2.28-.088-1.003-.5-1.762-1.235-2.276-.736-.514-1.765-.713-3.088-.597-1.562.136-2.898.647-4.01 1.53-1.096.868-1.904 2.095-2.424 3.682-.521 1.572-.686 3.45-.495 5.633.09 1.02.27 1.887.541 2.603.271.715.574 1.242.91 1.582.334.34.637.499.908.475.207-.018.366-.136.475-.355.125-.22.208-.564.247-1.033l.332-3.643ZM78.403 54v-5.818h3.784v.883h-2.73v1.58h2.534v.883h-2.534v1.589h2.753V54h-3.807Zm-2.433-4.219a.776.776 0 0 0-.335-.58c-.196-.138-.45-.207-.762-.207-.22 0-.408.034-.565.1a.836.836 0 0 0-.36.27.656.656 0 0 0-.046.704.755.755 0 0 0 .23.227c.096.061.203.112.32.154.118.042.237.077.356.105l.545.136c.22.052.431.12.634.208.204.087.387.197.548.33.163.132.292.292.386.48.095.187.143.407.143.659 0 .34-.088.64-.262.9-.174.258-.426.46-.756.605-.327.144-.724.216-1.19.216-.453 0-.846-.07-1.179-.21a1.756 1.756 0 0 1-.778-.614c-.186-.269-.286-.596-.301-.983h1.037a.881.881 0 0 0 .187.506c.11.134.253.235.43.301s.376.1.596.1c.229 0 .43-.035.602-.103a.976.976 0 0 0 .409-.29.7.7 0 0 0 .15-.437.556.556 0 0 0-.133-.375.979.979 0 0 0-.366-.25 3.525 3.525 0 0 0-.546-.182l-.662-.17c-.479-.123-.858-.31-1.136-.56-.277-.252-.415-.586-.415-1.003a1.5 1.5 0 0 1 .278-.9 1.84 1.84 0 0 1 .765-.6 2.653 2.653 0 0 1 1.093-.216c.413 0 .775.072 1.086.216.312.142.557.34.736.594.177.252.27.542.275.87H75.97Zm-5.761-1.599h1.054v3.801c0 .417-.099.783-.296 1.1-.195.316-.47.563-.824.74-.354.177-.768.265-1.241.265-.476 0-.89-.088-1.245-.264a1.997 1.997 0 0 1-.823-.741 2.052 2.052 0 0 1-.293-1.1v-3.801h1.054v3.713c0 .242.053.458.16.648.107.19.259.338.454.446.195.106.426.159.693.159.267 0 .498-.053.693-.16.197-.107.349-.256.454-.445.107-.19.16-.406.16-.648v-3.713Zm-5.065 2.908c0 .628-.117 1.165-.352 1.612a2.496 2.496 0 0 1-.954 1.023 2.64 2.64 0 0 1-1.367.355c-.51 0-.966-.119-1.37-.355a2.54 2.54 0 0 1-.954-1.026c-.233-.447-.35-.983-.35-1.608 0-.627.117-1.163.35-1.608.235-.447.553-.789.955-1.026.403-.236.86-.355 1.37-.355.509 0 .964.119 1.366.355.403.237.721.579.954 1.026.235.445.352.981.352 1.608Zm-1.06 0c0-.44-.068-.813-.207-1.116a1.537 1.537 0 0 0-.568-.69 1.506 1.506 0 0 0-.838-.236 1.51 1.51 0 0 0-.838.236 1.553 1.553 0 0 0-.57.69c-.137.304-.206.676-.206 1.117 0 .441.069.814.205 1.12.138.302.329.532.571.69.242.155.522.232.838.232.316 0 .596-.077.838-.232a1.56 1.56 0 0 0 .568-.69c.139-.306.208-.679.208-1.12ZM53.592 54v-5.818h1.054v2.463h2.696v-2.463h1.057V54h-1.057v-2.47h-2.696V54h-1.054Zm-7.644 0v-5.818h3.784v.883h-2.73v1.58h2.534v.883h-2.534v1.589h2.753V54h-3.807Zm-5.258 0v-5.818h3.784v.883h-2.73v1.58h2.534v.883h-2.535v1.589h2.753V54H40.69Zm-5.088 0v-5.818h3.727v.883h-2.673v1.58h2.417v.883h-2.417V54h-1.054Zm-5.088 0v-5.818h3.727v.883h-2.673v1.58h2.417v.883h-2.417V54h-1.054Zm-1.396-2.91c0 .628-.117 1.165-.352 1.612a2.495 2.495 0 0 1-.955 1.023 2.64 2.64 0 0 1-1.366.355c-.51 0-.966-.119-1.37-.355a2.54 2.54 0 0 1-.954-1.026c-.233-.447-.35-.983-.35-1.608 0-.627.117-1.163.35-1.608.235-.447.553-.789.955-1.026a2.66 2.66 0 0 1 1.369-.355c.51 0 .965.119 1.366.355.404.237.722.579.955 1.026.235.445.352.981.352 1.608Zm-1.06 0c0-.44-.069-.813-.207-1.116a1.535 1.535 0 0 0-.568-.69 1.506 1.506 0 0 0-.838-.236c-.317 0-.596.079-.838.236a1.553 1.553 0 0 0-.571.69c-.137.304-.205.676-.205 1.117 0 .441.068.814.205 1.12.138.302.328.532.57.69.243.155.522.232.839.232.316 0 .595-.077.838-.232.242-.158.432-.388.568-.69.138-.306.207-.679.207-1.12Zm-5.504-.945H21.49a1.324 1.324 0 0 0-.168-.463 1.246 1.246 0 0 0-.718-.56 1.617 1.617 0 0 0-.497-.074c-.317 0-.597.08-.841.239a1.566 1.566 0 0 0-.574.693c-.138.303-.208.673-.208 1.11 0 .446.07.821.208 1.126.14.303.331.532.574.687.244.154.523.23.838.23.174 0 .337-.022.488-.068.154-.047.291-.116.412-.207a1.265 1.265 0 0 0 .486-.79l1.063.006c-.04.276-.126.536-.259.778a2.296 2.296 0 0 1-1.258 1.074c-.284.102-.6.154-.946.154-.512 0-.968-.119-1.37-.355a2.478 2.478 0 0 1-.949-1.026c-.23-.447-.346-.983-.346-1.608 0-.627.116-1.163.35-1.608a2.5 2.5 0 0 1 .95-1.026 2.634 2.634 0 0 1 1.365-.355c.323 0 .625.046.903.137.278.09.526.224.744.4.218.174.397.389.537.642a2.4 2.4 0 0 1 .279.864Z"/></svg>