<?xml version="1.0" standalone="no"?>
<!DOCTYPE svg PUBLIC "-//W3C//DTD SVG 20010904//EN"
 "http://www.w3.org/TR/2001/REC-SVG-20010904/DTD/svg10.dtd">
<svg version="1.0" xmlns="http://www.w3.org/2000/svg"
 width="480.000000pt" height="480.000000pt" viewBox="0 0 480.000000 480.000000"
 preserveAspectRatio="xMidYMid meet">

<g transform="translate(0.000000,480.000000) scale(0.100000,-0.100000)"
fill="#000000" stroke="none">
<path d="M670 3004 c-215 -46 -401 -220 -463 -433 -23 -80 -27 -233 -8 -311
41 -173 167 -332 321 -409 254 -125 518 -83 715 114 125 124 185 265 185 435
0 170 -60 311 -185 435 -155 156 -353 215 -565 169z m120 -399 l0 -95 -150 0
-150 0 0 95 0 95 150 0 150 0 0 -95z m240 85 c0 -6 -27 -10 -60 -10 -33 0 -60
4 -60 10 0 6 27 10 60 10 33 0 60 -4 60 -10z m55 0 c3 -5 -3 -10 -15 -10 -12
0 -18 5 -15 10 3 6 10 10 15 10 5 0 12 -4 15 -10z m70 0 c4 -6 -5 -10 -19 -10
-14 0 -26 5 -26 10 0 6 9 10 19 10 11 0 23 -4 26 -10z m-12 -57 c-13 -2 -35
-2 -50 0 -16 2 -5 4 22 4 28 0 40 -2 28 -4z m-231 -87 c-22 -24 -42 -60 -42
-75 0 -7 49 -11 145 -11 l145 0 0 -180 0 -180 -355 0 -355 0 0 180 0 180 199
0 199 0 11 31 c6 17 22 44 36 61 14 16 26 39 26 51 2 16 3 14 6 -7 3 -18 -2
-35 -15 -50z"/>
<path d="M510 2605 l0 -75 135 0 135 0 0 75 0 75 -135 0 -135 0 0 -75z m140 0
c-12 -30 -26 -55 -31 -55 -13 0 -12 4 18 64 34 70 43 64 13 -9z m-59 11 c-8
-10 -9 -16 -1 -21 5 -3 10 -11 10 -18 0 -6 -10 -1 -22 11 -23 23 -23 23 -4 37
23 17 34 11 17 -9z m123 -27 c-19 -21 -41 -15 -24 6 6 7 7 21 3 31 -6 18 -6
18 15 0 21 -18 21 -20 6 -37z"/>
<path d="M460 2280 l0 -160 345 0 346 0 -3 158 -3 157 -342 3 -343 2 0 -160z
m118 93 l3 -43 -45 0 -46 0 0 46 0 45 43 -3 c42 -3 42 -3 45 -45z m107 2 c0
-40 0 -40 -42 -43 l-43 -3 0 46 0 46 43 -3 c42 -3 42 -3 42 -43z m105 -1 l0
-45 -42 3 c-39 3 -43 6 -46 31 -6 46 4 57 48 57 l40 0 0 -46z m110 1 l0 -45
-45 0 -45 0 0 45 0 45 45 0 45 0 0 -45z m110 0 l0 -45 -45 0 -45 0 0 45 0 45
45 0 45 0 0 -45z m105 0 c0 -40 0 -40 -42 -43 l-43 -3 0 46 0 46 43 -3 c42 -3
42 -3 42 -43z m-535 -95 l0 -40 -45 0 -45 0 0 40 0 40 45 0 45 0 0 -40z m110
0 l0 -40 -45 0 -45 0 0 40 0 40 45 0 45 0 0 -40z m100 0 l0 -40 -45 0 -45 0 0
40 0 40 45 0 45 0 0 -40z m110 0 l0 -40 -45 0 -45 0 0 40 0 40 45 0 45 0 0
-40z m110 0 l0 -40 -45 0 -45 0 0 40 0 40 45 0 45 0 0 -40z m110 0 l0 -40 -45
0 -45 0 0 40 0 40 45 0 45 0 0 -40z m-540 -100 l0 -40 -45 0 -45 0 0 40 0 40
45 0 45 0 0 -40z m320 0 l0 -40 -150 0 -150 0 0 40 0 40 150 0 150 0 0 -40z
m110 0 l0 -40 -45 0 -45 0 0 40 0 40 45 0 45 0 0 -40z m108 3 c-3 -37 -4 -38
-45 -41 l-43 -3 0 40 0 41 46 0 45 0 -3 -37z"/>
<path d="M500 2375 c0 -21 5 -25 30 -25 25 0 30 4 30 25 0 21 -5 25 -30 25
-25 0 -30 -4 -30 -25z"/>
<path d="M610 2375 c0 -21 5 -25 30 -25 25 0 30 4 30 25 0 21 -5 25 -30 25
-25 0 -30 -4 -30 -25z"/>
<path d="M720 2375 c0 -21 5 -25 30 -25 25 0 30 4 30 25 0 21 -5 25 -30 25
-25 0 -30 -4 -30 -25z"/>
<path d="M830 2376 c0 -22 4 -26 31 -26 26 0 30 3 27 23 -2 16 -11 23 -30 25
-24 3 -28 0 -28 -22z"/>
<path d="M937 2393 c-4 -3 -7 -15 -7 -25 0 -13 8 -18 30 -18 25 0 30 4 30 25
0 20 -5 25 -23 25 -13 0 -27 -3 -30 -7z"/>
<path d="M1040 2375 c0 -21 5 -25 30 -25 25 0 30 4 30 25 0 21 -5 25 -30 25
-25 0 -30 -4 -30 -25z"/>
<path d="M502 2278 c2 -17 11 -24 31 -26 23 -3 27 0 27 22 0 22 -4 26 -31 26
-26 0 -30 -3 -27 -22z"/>
<path d="M612 2278 c2 -17 11 -24 31 -26 23 -3 27 0 27 22 0 22 -4 26 -31 26
-26 0 -30 -3 -27 -22z"/>
<path d="M720 2274 c0 -22 4 -25 28 -22 19 2 28 9 30 26 3 19 -1 22 -27 22
-27 0 -31 -4 -31 -26z"/>
<path d="M830 2274 c0 -22 4 -25 28 -22 19 2 28 9 30 26 3 19 -1 22 -27 22
-27 0 -31 -4 -31 -26z"/>
<path d="M932 2278 c2 -17 11 -24 31 -26 23 -3 27 0 27 22 0 22 -4 26 -31 26
-26 0 -30 -3 -27 -22z"/>
<path d="M1042 2278 c2 -17 11 -24 31 -26 23 -3 27 0 27 22 0 22 -4 26 -31 26
-26 0 -30 -3 -27 -22z"/>
<path d="M507 2203 c-4 -3 -7 -15 -7 -25 0 -13 8 -18 30 -18 25 0 30 4 30 25
0 20 -5 25 -23 25 -13 0 -27 -3 -30 -7z"/>
<path d="M610 2185 l0 -25 141 0 c140 0 140 0 137 23 -3 21 -6 22 -140 25
l-138 3 0 -26z"/>
<path d="M937 2203 c-4 -3 -7 -15 -7 -25 0 -13 8 -18 30 -18 25 0 30 4 30 25
0 20 -5 25 -23 25 -13 0 -27 -3 -30 -7z"/>
<path d="M1040 2185 c0 -21 5 -25 30 -25 25 0 30 4 30 25 0 21 -5 25 -30 25
-25 0 -30 -4 -30 -25z"/>
<path d="M2180 2405 l0 -265 30 0 30 0 0 265 0 265 -30 0 -30 0 0 -265z"/>
<path d="M1680 2395 l0 -255 30 0 29 0 3 120 3 119 130 -119 c118 -109 133
-120 168 -120 l38 0 -88 83 c-48 45 -110 103 -138 129 l-50 48 55 52 c30 29
90 86 133 126 l77 72 -37 0 c-34 0 -50 -11 -163 -117 l-125 -116 -3 116 -3
117 -29 0 -30 0 0 -255z"/>
<path d="M3738 2603 c-14 -3 -18 -15 -18 -54 l0 -49 -41 0 c-36 0 -40 -2 -37
-22 2 -19 10 -24 41 -26 l37 -3 0 -129 c0 -121 1 -131 24 -156 20 -24 31 -28
77 -29 49 0 54 2 57 23 3 19 -1 22 -30 22 -18 0 -38 4 -45 8 -23 14 -33 64
-33 163 l0 99 55 0 c52 0 55 1 55 25 0 24 -3 25 -55 25 l-55 0 0 55 c0 30 -3
54 -7 54 -5 -1 -16 -3 -25 -6z"/>
<path d="M2470 2488 c-68 -34 -92 -83 -88 -178 4 -89 28 -132 92 -161 86 -39
229 -6 212 49 l-7 20 -46 -20 c-95 -42 -193 3 -193 87 l0 35 130 0 130 0 0 33
c0 18 -10 53 -22 77 -40 78 -123 101 -208 58z m144 -50 c14 -13 28 -35 32 -50
l6 -28 -106 0 c-67 0 -106 4 -106 10 0 20 30 69 47 79 33 19 100 13 127 -11z"/>
<path d="M2935 2503 c-35 -9 -87 -55 -102 -91 -18 -43 -20 -126 -4 -174 13
-40 54 -82 94 -97 73 -28 169 3 209 67 31 50 32 159 2 217 -34 64 -118 98
-199 78z m106 -59 c74 -38 79 -198 8 -248 -49 -34 -137 -11 -157 41 -31 82
-21 152 28 196 35 31 76 35 121 11z"/>
<path d="M3354 2496 c-42 -18 -64 -52 -64 -97 0 -53 35 -83 121 -104 92 -23
120 -63 71 -102 -24 -20 -112 -16 -154 7 l-37 19 -7 -21 c-8 -25 12 -43 66
-58 109 -31 210 14 210 93 0 59 -35 88 -131 108 -81 18 -110 58 -69 99 26 26
88 26 139 0 34 -17 40 -18 45 -4 11 28 6 35 -36 54 -50 23 -110 25 -154 6z"/>
<path d="M4114 2500 c-12 -4 -31 -20 -42 -35 l-21 -26 -3 28 c-2 22 -9 29 -30
31 l-28 3 0 -180 0 -181 30 0 30 0 0 110 c0 158 22 202 103 206 37 2 42 5 42
25 0 19 -6 24 -30 26 -16 1 -40 -2 -51 -7z"/>
<path d="M4375 2497 c-110 -50 -138 -216 -54 -312 36 -41 86 -59 146 -52 159
18 206 250 72 349 -33 25 -124 33 -164 15z m124 -51 c65 -34 78 -168 23 -236
-27 -34 -108 -39 -144 -10 -49 38 -62 158 -23 213 32 46 92 59 144 33z"/>
</g>
</svg>
